<?xml version="1.0" standalone="no"?>
<!DOCTYPE svg PUBLIC "-//W3C//DTD SVG 20010904//EN"
 "http://www.w3.org/TR/2001/REC-SVG-20010904/DTD/svg10.dtd">
<svg version="1.0" xmlns="http://www.w3.org/2000/svg"
 width="700.000000pt" height="700.000000pt" viewBox="0 0 700.000000 700.000000"
 preserveAspectRatio="xMidYMid meet">
<metadata>
Created by potrace 1.14, written by Peter Selinger 2001-2017
</metadata>
<g transform="translate(0.000000,700.000000) scale(0.100000,-0.100000)"
fill="#000000" stroke="none">
<path d="M1558 5125 c-2 -1 -40 -6 -86 -9 -46 -4 -89 -9 -95 -12 -7 -2 -25 -6
-42 -8 -65 -8 -240 -54 -290 -76 -11 -5 -49 -21 -85 -36 -295 -121 -570 -357
-733 -629 -64 -107 -148 -306 -173 -407 -9 -38 -25 -118 -40 -198 -10 -57 -12
-391 -3 -450 5 -30 11 -73 15 -95 54 -367 276 -731 584 -960 41 -30 80 -60 87
-65 7 -6 15 -10 19 -10 3 0 18 -9 33 -20 15 -10 65 -38 111 -61 213 -106 455
-170 730 -195 86 -7 352 -7 408 0 20 3 66 8 102 11 138 14 335 65 490 128 160
65 371 215 482 343 20 23 22 18 -88 137 -32 35 -104 112 -159 172 -55 59 -127
137 -160 172 l-60 64 -40 -36 c-123 -110 -273 -190 -430 -231 -85 -22 -127
-27 -275 -30 -96 -2 -195 0 -220 5 -25 5 -61 12 -80 15 -93 15 -222 69 -322
133 -147 96 -278 281 -313 441 l-7 32 1190 0 1189 0 2 43 c2 23 4 60 6 82 5
53 5 272 0 310 -2 17 -6 55 -10 85 -25 211 -117 461 -241 657 -214 336 -571
577 -979 659 -84 17 -127 24 -175 30 -53 6 -337 14 -342 9z m298 -705 c294
-55 548 -315 590 -601 l5 -36 -771 0 -771 -1 6 45 c8 62 58 194 96 256 116
189 317 318 538 344 25 3 47 6 48 7 8 7 203 -4 259 -14z"/>
<path d="M5237 5124 c-1 -1 -36 -5 -77 -8 -41 -4 -109 -14 -150 -22 -41 -8
-86 -17 -100 -20 -60 -11 -251 -80 -320 -115 -41 -22 -81 -39 -87 -39 -7 0
-13 -4 -13 -8 0 -5 -12 -14 -27 -21 -40 -18 -127 -76 -192 -129 -234 -189
-406 -435 -500 -717 -16 -50 -32 -101 -35 -115 -41 -207 -49 -273 -48 -442 3
-571 274 -1052 752 -1340 169 -101 413 -192 600 -222 61 -10 173 -25 235 -31
73 -8 352 -8 415 0 25 3 68 8 95 11 269 30 522 119 727 257 88 58 258 210 258
229 0 11 -25 39 -144 169 -130 140 -246 266 -288 312 l-43 48 -52 -45 c-161
-136 -328 -213 -533 -244 -61 -9 -354 -8 -410 2 -257 45 -456 163 -580 345
-46 67 -94 174 -105 233 l-7 38 1188 2 1187 3 4 35 c2 19 5 107 7 195 8 367
-79 678 -271 967 -247 371 -658 610 -1143 664 -58 6 -337 13 -343 8z m283
-699 c239 -36 469 -216 564 -443 22 -51 55 -168 56 -193 0 -4 -348 -7 -773 -7
l-774 0 9 47 c39 213 166 396 346 499 58 33 125 65 142 67 3 1 14 4 25 8 25 8
67 16 125 23 25 4 46 7 48 9 5 4 189 -3 232 -10z"/>
</g>
</svg>
