<?xml version="1.0" standalone="no"?>
<!DOCTYPE svg PUBLIC "-//W3C//DTD SVG 20010904//EN"
 "http://www.w3.org/TR/2001/REC-SVG-20010904/DTD/svg10.dtd">
<svg version="1.0" xmlns="http://www.w3.org/2000/svg"
 width="700.000000pt" height="700.000000pt" viewBox="0 0 700.000000 700.000000"
 preserveAspectRatio="xMidYMid meet">
<metadata>
Created by potrace 1.14, written by Peter Selinger 2001-2017
</metadata>
<g transform="translate(0.000000,700.000000) scale(0.100000,-0.100000)"
fill="#000000" stroke="none">
<path d="M1457 6094 c-1 -1 -34 -4 -72 -7 -273 -22 -593 -153 -815 -335 -99
-81 -231 -225 -301 -330 -115 -171 -204 -382 -233 -547 -8 -43 -14 -75 -23
-110 -10 -42 -13 -2397 -3 -2470 4 -33 11 -82 15 -110 12 -82 61 -246 104
-344 33 -77 121 -236 152 -276 127 -162 203 -241 322 -332 214 -165 488 -276
767 -310 84 -10 2603 -11 2694 0 721 81 1299 664 1372 1387 79 774 -432 1492
-1188 1670 -170 40 -210 42 -768 45 -497 3 -498 3 -601 56 -219 111 -329 351
-269 586 11 41 32 97 47 125 39 71 137 168 208 205 127 66 49 63 1440 60
l1260 -2 76 -31 c42 -17 84 -37 94 -45 124 -101 185 -189 211 -308 16 -69 17
-180 17 -1176 0 -1098 -3 -1224 -27 -1360 -3 -16 -8 -46 -11 -65 -3 -19 -8
-43 -11 -52 -3 -9 -7 -25 -9 -35 -2 -10 -15 -58 -30 -108 -94 -322 -270 -618
-517 -869 -49 -49 -88 -91 -88 -92 0 -6 334 4 380 11 25 4 77 13 115 21 39 8
80 17 92 20 56 11 232 80 311 121 422 221 707 605 804 1085 l23 113 0 1195 c0
657 -3 1222 -7 1255 -27 216 -90 406 -193 584 -90 154 -142 222 -267 343 -212
206 -481 348 -763 402 -44 9 -93 19 -110 22 -44 10 -2617 12 -2705 3 -101 -11
-215 -35 -314 -65 -116 -36 -325 -143 -434 -220 -362 -261 -597 -670 -638
-1114 -12 -120 -5 -321 12 -403 6 -29 24 -117 30 -144 20 -99 120 -321 200
-446 253 -392 694 -661 1155 -703 41 -4 283 -8 539 -9 478 -2 511 -4 600 -44
138 -62 256 -203 291 -347 29 -119 10 -266 -49 -376 -38 -71 -126 -158 -202
-201 -126 -70 -59 -67 -1425 -67 -1086 0 -1237 2 -1290 16 -205 54 -351 215
-382 424 -8 59 -8 2187 1 2310 13 192 73 460 132 587 7 17 14 34 14 37 0 25
156 319 202 381 103 137 168 215 244 293 52 53 94 97 94 98 0 2 -270 1 -273
-2z"/>
</g>
</svg>
