<svg width="146" height="32" viewBox="0 0 146 32" fill="none" xmlns="http://www.w3.org/2000/svg">
<path d="M16.2499 16H15.5999C12.728 16 10.3999 13.6719 10.3999 10.8C10.3999 7.92809 12.728 5.59998 15.5999 5.59998L27.3001 5.59998C30.2251 5.59998 32.5001 7.87498 32.5001 10.8" stroke="url(#paint0_linear_111_226)" stroke-width="5.2"/>
<path d="M18.85 16H19.5C22.3719 16 24.7 18.3281 24.7 21.2C24.7 24.0719 22.3719 26.4 19.5 26.4H7.8001C4.8751 26.4 2.6001 24.125 2.6001 21.2" stroke="url(#paint1_linear_111_226)" stroke-width="5.2"/>
<path d="M16.25 16H18.85" stroke="#141516" stroke-width="5.2"/>
<path fill-rule="evenodd" clip-rule="evenodd" d="M5.2 10.8C5.2 7.6938 6.56176 4.90566 8.72086 3H7.8C3.43906 3 0 6.43906 0 10.8V21.2C0 25.5609 3.43906 29 7.8 29H19.5001V23.8H7.8C6.31094 23.8 5.2 22.6891 5.2 21.2V10.8ZM29.9 21.1564C29.9001 21.1709 29.9001 21.1855 29.9001 21.2C29.9001 24.3062 28.5383 27.0943 26.3793 29H27.3C31.6609 29 35.1 25.5609 35.1 21.2V10.8C35.1 6.43906 31.6609 3 27.3 3H15.6V8.2H27.3C28.7891 8.2 29.9 9.31094 29.9 10.8V21.1564Z" fill="#141516" fill-opacity="0.5"/>
<path d="M49.1721 23.192C53.0361 23.192 55.2681 21.488 55.2681 19.088C55.2681 14 47.4681 16.136 47.4681 13.928C47.4681 13.256 48.1881 12.728 49.8681 12.728C51.0441 12.728 52.3161 12.968 53.5881 13.688L54.8361 11.024C53.6121 10.304 51.6441 9.896 49.8681 9.896C46.1001 9.896 43.8921 11.624 43.8921 14.072C43.8921 19.232 51.6921 17.072 51.6921 19.184C51.6921 19.904 51.0441 20.36 49.3161 20.36C47.7321 20.36 45.9801 19.856 44.8281 19.112L43.5801 21.8C44.7801 22.592 46.9881 23.192 49.1721 23.192ZM63.8181 23.192C66.5301 23.192 68.6661 21.992 69.6021 19.928L66.6981 18.344C66.0021 19.592 64.9701 20.12 63.7941 20.12C61.8981 20.12 60.4101 18.8 60.4101 16.544C60.4101 14.288 61.8981 12.968 63.7941 12.968C64.9701 12.968 66.0021 13.52 66.6981 14.744L69.6021 13.184C68.6661 11.072 66.5301 9.896 63.8181 9.896C59.6181 9.896 56.6181 12.656 56.6181 16.544C56.6181 20.432 59.6181 23.192 63.8181 23.192ZM75.3338 10.088H71.7578V23H75.5018V16.904C75.5018 14.432 76.8698 13.304 78.9338 13.304C79.2218 13.304 79.4618 13.328 79.7738 13.352V9.896C77.7818 9.896 76.2458 10.544 75.3338 11.792V10.088ZM94.5308 16.592C94.5308 12.44 91.6028 9.896 87.8108 9.896C83.8748 9.896 80.9228 12.68 80.9228 16.544C80.9228 20.384 83.8268 23.192 88.2908 23.192C90.6188 23.192 92.4188 22.472 93.6188 21.104L91.6268 18.944C90.7388 19.784 89.7548 20.192 88.3868 20.192C86.4188 20.192 85.0508 19.208 84.6908 17.6H94.4588C94.4828 17.288 94.5308 16.88 94.5308 16.592ZM87.8348 12.728C89.5148 12.728 90.7388 13.784 91.0028 15.416H84.6428C84.9068 13.76 86.1308 12.728 87.8348 12.728ZM109.671 16.592C109.671 12.44 106.743 9.896 102.951 9.896C99.0154 9.896 96.0634 12.68 96.0634 16.544C96.0634 20.384 98.9674 23.192 103.431 23.192C105.759 23.192 107.559 22.472 108.759 21.104L106.767 18.944C105.879 19.784 104.895 20.192 103.527 20.192C101.559 20.192 100.191 19.208 99.8314 17.6H109.599C109.623 17.288 109.671 16.88 109.671 16.592ZM102.975 12.728C104.655 12.728 105.879 13.784 106.143 15.416H99.7834C100.047 13.76 101.271 12.728 102.975 12.728ZM120.012 9.896C118.26 9.896 116.748 10.496 115.74 11.6V10.088H112.164V23H115.908V16.616C115.908 14.24 117.204 13.136 119.004 13.136C120.66 13.136 121.62 14.096 121.62 16.184V23H125.364V15.608C125.364 11.672 123.06 9.896 120.012 9.896ZM134.996 23.192C139.1 23.192 142.076 20.432 142.076 16.544C142.076 12.656 139.1 9.896 134.996 9.896C130.892 9.896 127.892 12.656 127.892 16.544C127.892 20.432 130.892 23.192 134.996 23.192ZM134.996 20.12C133.124 20.12 131.684 18.776 131.684 16.544C131.684 14.312 133.124 12.968 134.996 12.968C136.868 12.968 138.284 14.312 138.284 16.544C138.284 18.776 136.868 20.12 134.996 20.12Z" fill="#141516"/>
<defs>
<linearGradient id="paint0_linear_111_226" x1="28.5999" y1="5.59998" x2="16.5749" y2="5.59998" gradientUnits="userSpaceOnUse">
<stop stop-color="#141516" stop-opacity="0"/>
<stop offset="1" stop-color="#141516"/>
</linearGradient>
<linearGradient id="paint1_linear_111_226" x1="18.5249" y1="26.4" x2="6.50008" y2="26.4" gradientUnits="userSpaceOnUse">
<stop stop-color="#141516"/>
<stop offset="1" stop-color="#141516" stop-opacity="0"/>
</linearGradient>
</defs>
</svg>
